<?xml version="1.0" encoding="UTF-8"?><svg id="a" xmlns="http://www.w3.org/2000/svg" viewBox="0 0 180 180"><defs><style>.b{fill:#9a9a9a;}.c{fill:#e82127;}</style></defs><path class="c" d="M90.45,177h0C42.41,177,3.45,138.05,3.45,90h0C3.45,41.95,42.41,3,90.45,3h0c48.05,0,87,38.95,87,87h0c0,48.05-38.95,87-87,87Z"/><g><path class="b" d="M90.45,50.89c12.74,0,14.25,.05,19.28,.28,4.65,.21,7.18,.99,8.86,1.64,2.23,.87,3.82,1.9,5.48,3.57,1.67,1.67,2.7,3.26,3.57,5.48,.65,1.68,1.43,4.21,1.64,8.86,.23,5.03,.28,6.54,.28,19.28s-.05,14.25-.28,19.28c-.21,4.65-.99,7.18-1.64,8.86-.87,2.23-1.9,3.82-3.57,5.49-1.67,1.67-3.26,2.7-5.48,3.57-1.68,.65-4.21,1.43-8.86,1.64-5.03,.23-6.54,.28-19.28,.28s-14.25-.05-19.28-.28c-4.65-.21-7.18-.99-8.86-1.64-2.23-.87-3.82-1.9-5.49-3.57-1.67-1.67-2.7-3.26-3.57-5.49-.65-1.68-1.43-4.21-1.64-8.86-.23-5.03-.28-6.54-.28-19.28s.05-14.25,.28-19.28c.21-4.65,.99-7.18,1.64-8.86,.87-2.23,1.9-3.81,3.57-5.48,1.67-1.67,3.26-2.7,5.49-3.57,1.68-.65,4.21-1.43,8.86-1.64,5.03-.23,6.54-.28,19.28-.28m0-8.6c-12.96,0-14.58,.06-19.67,.29-5.08,.23-8.54,1.04-11.58,2.22-3.14,1.22-5.8,2.85-8.45,5.5s-4.28,5.31-5.5,8.45c-1.18,3.03-1.99,6.5-2.22,11.58-.23,5.09-.29,6.71-.29,19.67s.05,14.58,.29,19.67c.23,5.08,1.04,8.54,2.22,11.58,1.22,3.14,2.85,5.8,5.5,8.45s5.31,4.28,8.45,5.5c3.03,1.18,6.5,1.99,11.58,2.22,5.09,.23,6.71,.29,19.67,.29s14.58-.05,19.67-.29c5.08-.23,8.54-1.04,11.58-2.22,3.14-1.22,5.8-2.85,8.45-5.5s4.28-5.31,5.5-8.45c1.18-3.03,1.99-6.5,2.22-11.58,.23-5.09,.29-6.71,.29-19.67s-.05-14.58-.29-19.67c-.23-5.08-1.04-8.54-2.22-11.58-1.22-3.14-2.85-5.8-5.5-8.45s-5.31-4.28-8.45-5.5c-3.03-1.18-6.5-1.99-11.58-2.22-5.09-.23-6.71-.29-19.67-.29"/><path class="b" d="M90.45,65.51c-13.53,0-24.5,10.97-24.5,24.5s10.97,24.5,24.5,24.5,24.5-10.97,24.5-24.5-10.97-24.5-24.5-24.5m0,40.4c-8.78,0-15.9-7.12-15.9-15.9s7.12-15.9,15.9-15.9,15.9,7.12,15.9,15.9-7.12,15.9-15.9,15.9"/><path class="b" d="M121.64,64.54c0,3.16-2.56,5.73-5.72,5.73s-5.73-2.56-5.73-5.73,2.56-5.72,5.73-5.72,5.72,2.56,5.72,5.72"/></g></svg>