<?xml version="1.0" encoding="UTF-8"?><svg id="a" xmlns="http://www.w3.org/2000/svg" viewBox="0 0 180 180"><defs><style>.b{fill:#676767;}.c{fill:#9a9a9a;}</style></defs><path class="c" d="M90.5,178.91h0C41.62,178.91,2,139.29,2,90.41h0C2,41.53,41.62,1.91,90.5,1.91h0c48.88,0,88.5,39.62,88.5,88.5h0c0,48.88-39.62,88.5-88.5,88.5Z"/><path class="b" d="M43.35,120.04c8.56,5.49,18.73,8.69,29.66,8.69,35.92,0,56.22-30.34,54.99-57.56,3.78-2.73,7.06-6.13,9.65-10.02-3.47,1.54-7.2,2.58-11.11,3.05,3.99-2.39,7.06-6.18,8.5-10.7-3.74,2.22-7.88,3.83-12.28,4.7-3.53-3.76-8.56-6.11-14.13-6.11-12.49,0-21.66,11.65-18.85,23.76-16.08-.81-30.34-8.51-39.88-20.22-5.07,8.7-2.63,20.08,5.99,25.83-3.17-.1-6.16-.97-8.77-2.42-.21,8.97,6.21,17.35,15.52,19.22-2.72,.74-5.71,.91-8.73,.33,2.46,7.69,9.6,13.28,18.07,13.44-8.13,6.38-18.38,9.22-28.64,8.01Z"/></svg>