<?xml version="1.0" encoding="utf-8"?>
<!-- Generator: Adobe Illustrator 26.2.1, SVG Export Plug-In . SVG Version: 6.00 Build 0)  -->
<svg version="1.1" id="Capa_1" xmlns="http://www.w3.org/2000/svg" xmlns:xlink="http://www.w3.org/1999/xlink" x="0px" y="0px"
	 viewBox="0 0 1026 201.3" style="enable-background:new 0 0 1026 201.3;" xml:space="preserve">
<style type="text/css">
	.st0{fill:#FFFFFF;}
</style>
<path class="st0" d="M851.1,87.7v75h24.1v-50h87.6v50h24V87.8L851.1,87.7 M872.5,63.4h92.5c12.9-2.6,22.4-13.9,25.1-24.9H847.4
	C850.1,49.5,859.8,60.8,872.5,63.4 M778.3,162.8c12.1-5.1,18.7-14,21.2-24.5H691.5l0.1-99.7l-24.2,0.1v124.1L778.3,162.8
	 M487.4,63.1h85.5c12.9-3.7,23.7-13.6,26.3-24.4H463.5V112h111.1v25.7l-87.2,0.1c-13.7,3.8-25.2,13-31,25.1l7.1-0.1h135V87.6h-111
	L487.4,63.1 M276.5,63.3H369c12.9-2.6,22.4-13.9,25.1-24.9H251.4C254,49.4,263.7,60.7,276.5,63.3 M276.5,112.3H369
	c12.9-2.5,22.4-13.9,25.1-24.9H251.4C254,98.5,263.7,109.8,276.5,112.3 M276.5,162.7H369c12.9-2.6,22.4-13.9,25.1-24.9H251.4
	C254,148.8,263.7,160.2,276.5,162.7 M35.8,38.7C38.6,49.6,48,60.6,60.9,63.4h38.9l2,0.8v98.3h24.3V64.2l2.2-0.8h39
	c13-3.4,22.2-13.9,24.9-24.7v-0.2H35.8V38.7"/>
</svg>
